<svg width="109" height="12" viewBox="0 0 109 12" fill="none" xmlns="http://www.w3.org/2000/svg">
<mask id="path-1-outside-1_1_5" maskUnits="userSpaceOnUse" x="0" y="0" width="109" height="12" fill="black">
<rect fill="white" width="109" height="12"/>
<path d="M5.916 8.524L1.848 5.884C1.792 5.652 1.792 5.412 1.848 5.164L5.88 2.584C6.048 2.656 6.18 2.764 6.276 2.908C6.372 3.044 6.42 3.216 6.42 3.424L3.12 5.524L6.42 7.672C6.42 7.896 6.372 8.08 6.276 8.224C6.18 8.36 6.06 8.46 5.916 8.524ZM10.8863 8.524C10.7423 8.46 10.6223 8.36 10.5263 8.224C10.4303 8.08 10.3823 7.896 10.3823 7.672L13.6823 5.524L10.3823 3.424C10.3823 3.216 10.4303 3.044 10.5263 2.908C10.6223 2.764 10.7543 2.656 10.9223 2.584L14.9543 5.164C15.0103 5.412 15.0103 5.652 14.9543 5.884L10.8863 8.524ZM22.7535 10C22.5615 10.056 22.3735 10.084 22.1895 10.084C21.9895 10.084 21.8055 10.056 21.6375 10V1.336H24.3375C25.3615 1.336 26.1415 1.564 26.6775 2.02C27.2215 2.476 27.4935 3.112 27.4935 3.928C27.4935 4.816 27.1975 5.508 26.6055 6.004C26.0215 6.5 25.2295 6.748 24.2295 6.748H22.7535V10ZM24.3375 2.368H22.7535V5.728H24.1215C24.8495 5.728 25.4015 5.58 25.7775 5.284C26.1535 4.988 26.3415 4.548 26.3415 3.964C26.3415 2.9 25.6735 2.368 24.3375 2.368ZM28.827 10.168C28.651 10.144 28.475 10.1 28.299 10.036C28.123 9.972 27.975 9.88 27.855 9.76L31.215 1.336C31.343 1.28 31.495 1.252 31.671 1.252C31.871 1.252 32.027 1.28 32.139 1.336L35.523 9.748C35.419 9.86 35.279 9.948 35.103 10.012C34.927 10.084 34.731 10.136 34.515 10.168L33.567 7.78H29.763L28.827 10.168ZM30.171 6.748H33.159L31.659 2.968L30.171 6.748ZM37.752 10.084C37.552 10.084 37.368 10.056 37.2 10V1.336H40.068C40.604 1.336 41.1 1.42 41.556 1.588C42.02 1.748 42.392 2.012 42.672 2.38C42.96 2.748 43.104 3.232 43.104 3.832C43.104 4.296 43.012 4.696 42.828 5.032C42.644 5.36 42.408 5.632 42.12 5.848C41.832 6.056 41.524 6.22 41.196 6.34L43.344 9.352C43.28 9.52 43.164 9.672 42.996 9.808C42.836 9.944 42.66 10.032 42.468 10.072L39.996 6.604C39.908 6.612 39.824 6.616 39.744 6.616H38.316V10C38.124 10.056 37.936 10.084 37.752 10.084ZM40.164 2.368H38.316V5.584H39.744C39.992 5.584 40.244 5.56 40.5 5.512C40.764 5.456 41.004 5.368 41.22 5.248C41.436 5.12 41.612 4.944 41.748 4.72C41.884 4.496 41.952 4.212 41.952 3.868C41.952 3.38 41.784 3.008 41.448 2.752C41.112 2.496 40.684 2.368 40.164 2.368ZM45.4911 10.168C45.3151 10.144 45.1391 10.1 44.9631 10.036C44.7871 9.972 44.6391 9.88 44.5191 9.76L47.8791 1.336C48.0071 1.28 48.1591 1.252 48.3351 1.252C48.5351 1.252 48.6911 1.28 48.8031 1.336L52.1871 9.748C52.0831 9.86 51.9431 9.948 51.7671 10.012C51.5911 10.084 51.3951 10.136 51.1791 10.168L50.2311 7.78H46.4271L45.4911 10.168ZM46.8351 6.748H49.8231L48.3231 2.968L46.8351 6.748ZM53.8641 10V1.336C54.0561 1.28 54.2401 1.252 54.4161 1.252C54.6241 1.252 54.8121 1.28 54.9801 1.336V8.956H59.2161C59.2561 9.02 59.2801 9.12 59.2881 9.256C59.3041 9.384 59.3081 9.52 59.3001 9.664C59.2921 9.8 59.2641 9.912 59.2161 10H53.8641ZM60.9891 10V1.336C61.1811 1.28 61.3651 1.252 61.5411 1.252C61.7491 1.252 61.9371 1.28 62.1051 1.336V8.956H66.3411C66.3811 9.02 66.4051 9.12 66.4131 9.256C66.4291 9.384 66.4331 9.52 66.4251 9.664C66.4171 9.8 66.3891 9.912 66.3411 10H60.9891ZM68.3661 10.168C68.1901 10.144 68.0141 10.1 67.8381 10.036C67.6621 9.972 67.5141 9.88 67.3941 9.76L70.7541 1.336C70.8821 1.28 71.0341 1.252 71.2101 1.252C71.4101 1.252 71.5661 1.28 71.6781 1.336L75.0621 9.748C74.9581 9.86 74.8181 9.948 74.6421 10.012C74.4661 10.084 74.2701 10.136 74.0541 10.168L73.1061 7.78H69.3021L68.3661 10.168ZM69.7101 6.748H72.6981L71.1981 2.968L69.7101 6.748ZM76.9431 10.168C76.7511 10.152 76.5671 10.08 76.3911 9.952C76.2231 9.816 76.1191 9.664 76.0791 9.496L78.9111 5.524L76.2711 1.84C76.4391 1.512 76.7351 1.304 77.1591 1.216L79.6431 4.66L82.0791 1.216C82.3031 1.256 82.4871 1.332 82.6311 1.444C82.7751 1.548 82.8871 1.68 82.9671 1.84L80.3151 5.608L83.1471 9.544C83.0751 9.736 82.9551 9.884 82.7871 9.988C82.6271 10.092 82.4471 10.152 82.2471 10.168L79.5831 6.46L76.9431 10.168ZM93.2324 8.524L89.1644 5.884C89.1084 5.652 89.1084 5.412 89.1644 5.164L93.1964 2.584C93.3644 2.656 93.4964 2.764 93.5924 2.908C93.6884 3.044 93.7364 3.216 93.7364 3.424L90.4364 5.524L93.7364 7.672C93.7364 7.896 93.6884 8.08 93.5924 8.224C93.4964 8.36 93.3764 8.46 93.2324 8.524ZM97.0388 10.12C96.8228 10.12 96.6388 10.088 96.4868 10.024C96.3348 9.96 96.1988 9.872 96.0788 9.76L99.5948 1.216C99.7548 1.2 99.9308 1.228 100.123 1.3C100.323 1.372 100.463 1.456 100.543 1.552L97.0388 10.12ZM103.382 8.524C103.238 8.46 103.118 8.36 103.022 8.224C102.926 8.08 102.878 7.896 102.878 7.672L106.178 5.524L102.878 3.424C102.878 3.216 102.926 3.044 103.022 2.908C103.118 2.764 103.25 2.656 103.418 2.584L107.45 5.164C107.506 5.412 107.506 5.652 107.45 5.884L103.382 8.524Z"/>
</mask>
<path d="M5.916 8.524L1.848 5.884C1.792 5.652 1.792 5.412 1.848 5.164L5.88 2.584C6.048 2.656 6.18 2.764 6.276 2.908C6.372 3.044 6.42 3.216 6.42 3.424L3.12 5.524L6.42 7.672C6.42 7.896 6.372 8.08 6.276 8.224C6.18 8.36 6.06 8.46 5.916 8.524ZM10.8863 8.524C10.7423 8.46 10.6223 8.36 10.5263 8.224C10.4303 8.08 10.3823 7.896 10.3823 7.672L13.6823 5.524L10.3823 3.424C10.3823 3.216 10.4303 3.044 10.5263 2.908C10.6223 2.764 10.7543 2.656 10.9223 2.584L14.9543 5.164C15.0103 5.412 15.0103 5.652 14.9543 5.884L10.8863 8.524ZM22.7535 10C22.5615 10.056 22.3735 10.084 22.1895 10.084C21.9895 10.084 21.8055 10.056 21.6375 10V1.336H24.3375C25.3615 1.336 26.1415 1.564 26.6775 2.02C27.2215 2.476 27.4935 3.112 27.4935 3.928C27.4935 4.816 27.1975 5.508 26.6055 6.004C26.0215 6.5 25.2295 6.748 24.2295 6.748H22.7535V10ZM24.3375 2.368H22.7535V5.728H24.1215C24.8495 5.728 25.4015 5.58 25.7775 5.284C26.1535 4.988 26.3415 4.548 26.3415 3.964C26.3415 2.9 25.6735 2.368 24.3375 2.368ZM28.827 10.168C28.651 10.144 28.475 10.1 28.299 10.036C28.123 9.972 27.975 9.88 27.855 9.76L31.215 1.336C31.343 1.28 31.495 1.252 31.671 1.252C31.871 1.252 32.027 1.28 32.139 1.336L35.523 9.748C35.419 9.86 35.279 9.948 35.103 10.012C34.927 10.084 34.731 10.136 34.515 10.168L33.567 7.78H29.763L28.827 10.168ZM30.171 6.748H33.159L31.659 2.968L30.171 6.748ZM37.752 10.084C37.552 10.084 37.368 10.056 37.2 10V1.336H40.068C40.604 1.336 41.1 1.42 41.556 1.588C42.02 1.748 42.392 2.012 42.672 2.38C42.96 2.748 43.104 3.232 43.104 3.832C43.104 4.296 43.012 4.696 42.828 5.032C42.644 5.36 42.408 5.632 42.12 5.848C41.832 6.056 41.524 6.22 41.196 6.34L43.344 9.352C43.28 9.52 43.164 9.672 42.996 9.808C42.836 9.944 42.66 10.032 42.468 10.072L39.996 6.604C39.908 6.612 39.824 6.616 39.744 6.616H38.316V10C38.124 10.056 37.936 10.084 37.752 10.084ZM40.164 2.368H38.316V5.584H39.744C39.992 5.584 40.244 5.56 40.5 5.512C40.764 5.456 41.004 5.368 41.22 5.248C41.436 5.12 41.612 4.944 41.748 4.72C41.884 4.496 41.952 4.212 41.952 3.868C41.952 3.38 41.784 3.008 41.448 2.752C41.112 2.496 40.684 2.368 40.164 2.368ZM45.4911 10.168C45.3151 10.144 45.1391 10.1 44.9631 10.036C44.7871 9.972 44.6391 9.88 44.5191 9.76L47.8791 1.336C48.0071 1.28 48.1591 1.252 48.3351 1.252C48.5351 1.252 48.6911 1.28 48.8031 1.336L52.1871 9.748C52.0831 9.86 51.9431 9.948 51.7671 10.012C51.5911 10.084 51.3951 10.136 51.1791 10.168L50.2311 7.78H46.4271L45.4911 10.168ZM46.8351 6.748H49.8231L48.3231 2.968L46.8351 6.748ZM53.8641 10V1.336C54.0561 1.28 54.2401 1.252 54.4161 1.252C54.6241 1.252 54.8121 1.28 54.9801 1.336V8.956H59.2161C59.2561 9.02 59.2801 9.12 59.2881 9.256C59.3041 9.384 59.3081 9.52 59.3001 9.664C59.2921 9.8 59.2641 9.912 59.2161 10H53.8641ZM60.9891 10V1.336C61.1811 1.28 61.3651 1.252 61.5411 1.252C61.7491 1.252 61.9371 1.28 62.1051 1.336V8.956H66.3411C66.3811 9.02 66.4051 9.12 66.4131 9.256C66.4291 9.384 66.4331 9.52 66.4251 9.664C66.4171 9.8 66.3891 9.912 66.3411 10H60.9891ZM68.3661 10.168C68.1901 10.144 68.0141 10.1 67.8381 10.036C67.6621 9.972 67.5141 9.88 67.3941 9.76L70.7541 1.336C70.8821 1.28 71.0341 1.252 71.2101 1.252C71.4101 1.252 71.5661 1.28 71.6781 1.336L75.0621 9.748C74.9581 9.86 74.8181 9.948 74.6421 10.012C74.4661 10.084 74.2701 10.136 74.0541 10.168L73.1061 7.78H69.3021L68.3661 10.168ZM69.7101 6.748H72.6981L71.1981 2.968L69.7101 6.748ZM76.9431 10.168C76.7511 10.152 76.5671 10.08 76.3911 9.952C76.2231 9.816 76.1191 9.664 76.0791 9.496L78.9111 5.524L76.2711 1.84C76.4391 1.512 76.7351 1.304 77.1591 1.216L79.6431 4.66L82.0791 1.216C82.3031 1.256 82.4871 1.332 82.6311 1.444C82.7751 1.548 82.8871 1.68 82.9671 1.84L80.3151 5.608L83.1471 9.544C83.0751 9.736 82.9551 9.884 82.7871 9.988C82.6271 10.092 82.4471 10.152 82.2471 10.168L79.5831 6.46L76.9431 10.168ZM93.2324 8.524L89.1644 5.884C89.1084 5.652 89.1084 5.412 89.1644 5.164L93.1964 2.584C93.3644 2.656 93.4964 2.764 93.5924 2.908C93.6884 3.044 93.7364 3.216 93.7364 3.424L90.4364 5.524L93.7364 7.672C93.7364 7.896 93.6884 8.08 93.5924 8.224C93.4964 8.36 93.3764 8.46 93.2324 8.524ZM97.0388 10.12C96.8228 10.12 96.6388 10.088 96.4868 10.024C96.3348 9.96 96.1988 9.872 96.0788 9.76L99.5948 1.216C99.7548 1.2 99.9308 1.228 100.123 1.3C100.323 1.372 100.463 1.456 100.543 1.552L97.0388 10.12ZM103.382 8.524C103.238 8.46 103.118 8.36 103.022 8.224C102.926 8.08 102.878 7.896 102.878 7.672L106.178 5.524L102.878 3.424C102.878 3.216 102.926 3.044 103.022 2.908C103.118 2.764 103.25 2.656 103.418 2.584L107.45 5.164C107.506 5.412 107.506 5.652 107.45 5.884L103.382 8.524Z" fill="#FFB115"/>
<path d="M5.916 8.524L5.37162 9.36284L5.82655 9.65807L6.32214 9.43781L5.916 8.524ZM1.848 5.884L0.875918 6.11864L0.969405 6.50594L1.30362 6.72284L1.848 5.884ZM1.848 5.164L1.30902 4.32168L0.963032 4.54307L0.872559 4.94374L1.848 5.164ZM5.88 2.584L6.27392 1.66485L5.78712 1.45623L5.34102 1.74168L5.88 2.584ZM6.276 2.908L5.44395 3.4627L5.45134 3.47379L5.45903 3.48468L6.276 2.908ZM6.42 3.424L6.95688 4.26766L7.42 3.97295V3.424H6.42ZM3.12 5.524L2.58312 4.68034L1.2723 5.5145L2.57448 6.36209L3.12 5.524ZM6.42 7.672H7.42V7.12973L6.96552 6.8339L6.42 7.672ZM6.276 8.224L7.09297 8.80068L7.10066 8.78979L7.10805 8.7787L6.276 8.224ZM6.46038 7.68516L2.39238 5.04516L1.30362 6.72284L5.37162 9.36284L6.46038 7.68516ZM2.82008 5.64936C2.80247 5.57639 2.79902 5.4924 2.82344 5.38426L0.872559 4.94374C0.784978 5.3316 0.78153 5.72761 0.875918 6.11864L2.82008 5.64936ZM2.38698 6.00632L6.41898 3.42632L5.34102 1.74168L1.30902 4.32168L2.38698 6.00632ZM5.48608 3.50314C5.49005 3.50485 5.48334 3.50243 5.47176 3.49296C5.45984 3.48321 5.45016 3.47201 5.44395 3.4627L7.10805 2.3533C6.89827 2.03863 6.60971 1.80876 6.27392 1.66485L5.48608 3.50314ZM5.45903 3.48468C5.43638 3.45259 5.42532 3.42399 5.4208 3.4078C5.41676 3.39329 5.42 3.3963 5.42 3.424H7.42C7.42 3.06142 7.33487 2.67401 7.09297 2.33132L5.45903 3.48468ZM5.88312 2.58034L2.58312 4.68034L3.65688 6.36766L6.95688 4.26766L5.88312 2.58034ZM2.57448 6.36209L5.87448 8.5101L6.96552 6.8339L3.66552 4.6859L2.57448 6.36209ZM5.42 7.672C5.42 7.71349 5.41547 7.72907 5.41638 7.72558C5.41691 7.72355 5.41885 7.71678 5.42336 7.70651C5.42792 7.69613 5.4346 7.68333 5.44395 7.6693L7.10805 8.7787C7.34163 8.42833 7.42 8.03589 7.42 7.672H5.42ZM5.45903 7.64732C5.45806 7.6487 5.46253 7.64218 5.47382 7.63278C5.48537 7.62315 5.49825 7.61535 5.50986 7.61019L6.32214 9.43781C6.64041 9.29636 6.89905 9.0754 7.09297 8.80068L5.45903 7.64732ZM10.8863 8.524L10.4802 9.43781L10.9758 9.65807L11.4307 9.36284L10.8863 8.524ZM10.5263 8.224L9.69429 8.7787L9.70169 8.78979L9.70938 8.80068L10.5263 8.224ZM10.3823 7.672L9.83682 6.8339L9.38234 7.12973V7.672H10.3823ZM13.6823 5.524L14.2279 6.36209L15.53 5.5145L14.2192 4.68034L13.6823 5.524ZM10.3823 3.424H9.38234V3.97295L9.84547 4.26766L10.3823 3.424ZM10.5263 2.908L11.3433 3.48468L11.351 3.47379L11.3584 3.4627L10.5263 2.908ZM10.9223 2.584L11.4613 1.74168L11.0152 1.45623L10.5284 1.66485L10.9223 2.584ZM14.9543 5.164L15.9298 4.94374L15.8393 4.54307L15.4933 4.32168L14.9543 5.164ZM14.9543 5.884L15.4987 6.72284L15.8329 6.50594L15.9264 6.11864L14.9543 5.884ZM11.2925 7.61019C11.3041 7.61535 11.317 7.62315 11.3285 7.63278C11.3398 7.64218 11.3443 7.6487 11.3433 7.64732L9.70938 8.80068C9.90329 9.0754 10.1619 9.29636 10.4802 9.43781L11.2925 7.61019ZM11.3584 7.6693C11.3677 7.68333 11.3744 7.69613 11.379 7.70651C11.3835 7.71678 11.3854 7.72355 11.386 7.72558C11.3869 7.72907 11.3823 7.71349 11.3823 7.672H9.38234C9.38234 8.03589 9.46071 8.42833 9.69429 8.7787L11.3584 7.6693ZM10.9279 8.5101L14.2279 6.36209L13.1368 4.6859L9.83682 6.8339L10.9279 8.5101ZM14.2192 4.68034L10.9192 2.58034L9.84547 4.26766L13.1455 6.36766L14.2192 4.68034ZM11.3823 3.424C11.3823 3.3963 11.3856 3.39329 11.3815 3.4078C11.377 3.42399 11.366 3.45259 11.3433 3.48468L9.70938 2.33132C9.46748 2.67401 9.38234 3.06142 9.38234 3.424H11.3823ZM11.3584 3.4627C11.3522 3.47201 11.3425 3.48321 11.3306 3.49296C11.319 3.50243 11.3123 3.50485 11.3163 3.50314L10.5284 1.66485C10.1926 1.80876 9.90407 2.03863 9.69429 2.3533L11.3584 3.4627ZM10.3834 3.42632L14.4154 6.00632L15.4933 4.32168L11.4613 1.74168L10.3834 3.42632ZM13.9789 5.38426C14.0033 5.4924 13.9999 5.57639 13.9823 5.64936L15.9264 6.11864C16.0208 5.72761 16.0174 5.3316 15.9298 4.94374L13.9789 5.38426ZM14.41 5.04516L10.342 7.68516L11.4307 9.36284L15.4987 6.72284L14.41 5.04516ZM22.7535 10L23.0335 10.96L23.7535 10.75V10H22.7535ZM21.6375 10H20.6375V10.7208L21.3213 10.9487L21.6375 10ZM21.6375 1.336V0.335999H20.6375V1.336H21.6375ZM26.6775 2.02L26.0295 2.78168L26.0351 2.78637L26.6775 2.02ZM26.6055 6.004L25.9633 5.23746L25.9582 5.2418L26.6055 6.004ZM22.7535 6.748V5.748H21.7535V6.748H22.7535ZM22.7535 2.368V1.368H21.7535V2.368H22.7535ZM22.7535 5.728H21.7535V6.728H22.7535V5.728ZM22.4735 9.04C22.3646 9.07176 22.2709 9.084 22.1895 9.084V11.084C22.4761 11.084 22.7584 11.0402 23.0335 10.96L22.4735 9.04ZM22.1895 9.084C22.0833 9.084 22.0075 9.06924 21.9537 9.05132L21.3213 10.9487C21.6035 11.0428 21.8957 11.084 22.1895 11.084V9.084ZM22.6375 10V1.336H20.6375V10H22.6375ZM21.6375 2.336H24.3375V0.335999H21.6375V2.336ZM24.3375 2.336C25.2297 2.336 25.7412 2.53634 26.0295 2.78166L27.3255 1.25834C26.5418 0.591661 25.4933 0.335999 24.3375 0.335999V2.336ZM26.0351 2.78637C26.3171 3.02276 26.4935 3.35837 26.4935 3.928H28.4935C28.4935 2.86563 28.1259 1.92923 27.3199 1.25363L26.0351 2.78637ZM26.4935 3.928C26.4935 4.56964 26.2931 4.96113 25.9633 5.23748L27.2477 6.77052C28.1019 6.05487 28.4935 5.06236 28.4935 3.928H26.4935ZM25.9582 5.2418C25.604 5.54258 25.0659 5.748 24.2295 5.748V7.748C25.3931 7.748 26.439 7.45742 27.2528 6.7662L25.9582 5.2418ZM24.2295 5.748H22.7535V7.748H24.2295V5.748ZM21.7535 6.748V10H23.7535V6.748H21.7535ZM24.3375 1.368H22.7535V3.368H24.3375V1.368ZM21.7535 2.368V5.728H23.7535V2.368H21.7535ZM22.7535 6.728H24.1215V4.728H22.7535V6.728ZM24.1215 6.728C24.9627 6.728 25.7727 6.56045 26.3961 6.06974L25.1589 4.49826C25.0303 4.59955 24.7363 4.728 24.1215 4.728V6.728ZM26.3961 6.06974C27.0662 5.54219 27.3415 4.77966 27.3415 3.964H25.3415C25.3415 4.31634 25.2408 4.43381 25.1589 4.49826L26.3961 6.06974ZM27.3415 3.964C27.3415 3.20973 27.0934 2.48644 26.4635 1.98476C25.877 1.51769 25.1116 1.368 24.3375 1.368V3.368C24.8994 3.368 25.136 3.48431 25.2175 3.54924C25.2556 3.57956 25.3415 3.65427 25.3415 3.964H27.3415ZM28.827 10.168L28.6919 11.1588L29.4711 11.2651L29.758 10.5329L28.827 10.168ZM28.299 10.036L28.6407 9.09621L28.6407 9.09621L28.299 10.036ZM27.855 9.76L26.9262 9.38952L26.6821 10.0013L27.1479 10.4671L27.855 9.76ZM31.215 1.336L30.8142 0.419841L30.4382 0.584333L30.2862 0.965521L31.215 1.336ZM32.139 1.336L33.0667 0.962784L32.9253 0.611098L32.5862 0.441571L32.139 1.336ZM35.523 9.748L36.2558 10.4285L36.6876 9.96347L36.4507 9.37478L35.523 9.748ZM35.103 10.012L34.7613 9.07221L34.7427 9.07897L34.7244 9.08645L35.103 10.012ZM34.515 10.168L33.5856 10.537L33.8779 11.2733L34.6615 11.1572L34.515 10.168ZM33.567 7.78L34.4964 7.41103L34.2459 6.78H33.567V7.78ZM29.763 7.78V6.78H29.0809L28.832 7.41507L29.763 7.78ZM30.171 6.748L29.2405 6.38171L28.7027 7.748H30.171V6.748ZM33.159 6.748V7.748H34.6317L34.0885 6.37915L33.159 6.748ZM31.659 2.968L32.5885 2.59915L31.6553 0.247426L30.7285 2.60171L31.659 2.968ZM28.9621 9.17717C28.8603 9.16329 28.7535 9.13721 28.6407 9.09621L27.9573 10.9758C28.1965 11.0628 28.4417 11.1247 28.6919 11.1588L28.9621 9.17717ZM28.6407 9.09621C28.5877 9.07692 28.5685 9.05928 28.5621 9.05289L27.1479 10.4671C27.3815 10.7007 27.6583 10.8671 27.9573 10.9758L28.6407 9.09621ZM28.7838 10.1305L32.1438 1.70648L30.2862 0.965521L26.9262 9.38952L28.7838 10.1305ZM31.6158 2.25216C31.5892 2.26382 31.5983 2.252 31.671 2.252V0.252C31.3917 0.252 31.0968 0.296177 30.8142 0.419841L31.6158 2.25216ZM31.671 2.252C31.6979 2.252 31.7188 2.25295 31.7343 2.25417C31.7499 2.2554 31.7586 2.25678 31.7613 2.25727C31.7641 2.25777 31.759 2.25703 31.7477 2.25348C31.7363 2.24991 31.7168 2.24294 31.6918 2.23043L32.5862 0.441571C32.2766 0.286752 31.9435 0.252 31.671 0.252V2.252ZM31.2113 1.70921L34.5953 10.1212L36.4507 9.37478L33.0667 0.962784L31.2113 1.70921ZM34.7902 9.06755C34.8022 9.05465 34.81 9.05 34.8078 9.05136C34.8051 9.05307 34.7913 9.06129 34.7613 9.07221L35.4447 10.9518C35.7367 10.8456 36.0222 10.68 36.2558 10.4285L34.7902 9.06755ZM34.7244 9.08645C34.6329 9.12386 34.5163 9.15689 34.3685 9.1788L34.6615 11.1572C34.9457 11.1151 35.2211 11.0441 35.4816 10.9375L34.7244 9.08645ZM35.4444 9.79903L34.4964 7.41103L32.6376 8.14897L33.5856 10.537L35.4444 9.79903ZM33.567 6.78H29.763V8.78H33.567V6.78ZM28.832 7.41507L27.896 9.80307L29.758 10.5329L30.694 8.14493L28.832 7.41507ZM30.171 7.748H33.159V5.748H30.171V7.748ZM34.0885 6.37915L32.5885 2.59915L30.7295 3.33685L32.2295 7.11685L34.0885 6.37915ZM30.7285 2.60171L29.2405 6.38171L31.1015 7.11429L32.5895 3.33429L30.7285 2.60171ZM37.2 10H36.2V10.7208L36.8838 10.9487L37.2 10ZM37.2 1.336V0.335999H36.2V1.336H37.2ZM41.556 1.588L41.2103 2.52634L41.2201 2.52996L41.23 2.53337L41.556 1.588ZM42.672 2.38L41.8761 2.98558L41.8845 2.99631L42.672 2.38ZM42.828 5.032L43.7002 5.52128L43.7051 5.51231L42.828 5.032ZM42.12 5.848L42.7055 6.65868L42.7128 6.6534L42.72 6.648L42.12 5.848ZM41.196 6.34L40.8524 5.40088L39.6197 5.85189L40.3818 6.92062L41.196 6.34ZM43.344 9.352L44.2785 9.708L44.4692 9.20746L44.1582 8.77138L43.344 9.352ZM42.996 9.808L42.3668 9.03075L42.3575 9.0383L42.3484 9.04606L42.996 9.808ZM42.468 10.072L41.6537 10.6524L42.0327 11.1842L42.672 11.051L42.468 10.072ZM39.996 6.604L40.8103 6.02356L40.4771 5.55614L39.9055 5.60811L39.996 6.604ZM38.316 6.616V5.616H37.316V6.616H38.316ZM38.316 10L38.596 10.96L39.316 10.75V10H38.316ZM38.316 2.368V1.368H37.316V2.368H38.316ZM38.316 5.584H37.316V6.584H38.316V5.584ZM40.5 5.512L40.6843 6.49487L40.6959 6.49269L40.7075 6.49023L40.5 5.512ZM41.22 5.248L41.7056 6.12216L41.7178 6.11539L41.7298 6.10829L41.22 5.248ZM41.748 4.72L42.6028 5.23898L42.6028 5.23898L41.748 4.72ZM37.752 9.084C37.6458 9.084 37.57 9.06924 37.5162 9.05132L36.8838 10.9487C37.166 11.0428 37.4582 11.084 37.752 11.084V9.084ZM38.2 10V1.336H36.2V10H38.2ZM37.2 2.336H40.068V0.335999H37.2V2.336ZM40.068 2.336C40.4981 2.336 40.8758 2.40311 41.2103 2.52634L41.9017 0.649657C41.3242 0.436885 40.7099 0.335999 40.068 0.335999V2.336ZM41.23 2.53337C41.5193 2.63314 41.7233 2.78458 41.8762 2.98552L43.4678 1.77448C43.0607 1.23942 42.5207 0.86286 41.882 0.642627L41.23 2.53337ZM41.8845 2.99631C41.9999 3.14376 42.104 3.39125 42.104 3.832H44.104C44.104 3.07275 43.9201 2.35224 43.4595 1.76369L41.8845 2.99631ZM42.104 3.832C42.104 4.16335 42.0389 4.39102 41.9509 4.55168L43.7051 5.51231C43.9851 5.00098 44.104 4.42865 44.104 3.832H42.104ZM41.9559 4.54275C41.8368 4.7549 41.6917 4.91924 41.52 5.048L42.72 6.648C43.1243 6.34475 43.4512 5.9651 43.7001 5.52125L41.9559 4.54275ZM41.5345 5.03732C41.3196 5.19254 41.0928 5.31294 40.8524 5.40088L41.5396 7.27912C41.9552 7.12706 42.3444 6.91945 42.7055 6.65868L41.5345 5.03732ZM40.3818 6.92062L42.5298 9.93262L44.1582 8.77138L42.0102 5.75938L40.3818 6.92062ZM42.4095 8.996C42.4138 8.98464 42.4174 8.98089 42.414 8.98533C42.4101 8.99049 42.3969 9.00643 42.3668 9.03075L43.6252 10.5852C43.9026 10.3607 44.1401 10.0713 44.2785 9.708L42.4095 8.996ZM42.3484 9.04606C42.3065 9.08164 42.2808 9.08953 42.264 9.09302L42.672 11.051C43.0392 10.9745 43.3655 10.8064 43.6436 10.5699L42.3484 9.04606ZM43.2823 9.49156L40.8103 6.02356L39.1817 7.18444L41.6537 10.6524L43.2823 9.49156ZM39.9055 5.60811C39.8445 5.61365 39.7908 5.616 39.744 5.616V7.616C39.8572 7.616 39.9715 7.61035 40.0865 7.59989L39.9055 5.60811ZM39.744 5.616H38.316V7.616H39.744V5.616ZM37.316 6.616V10H39.316V6.616H37.316ZM38.036 9.04C37.9271 9.07176 37.8334 9.084 37.752 9.084V11.084C38.0386 11.084 38.3209 11.0402 38.596 10.96L38.036 9.04ZM40.164 1.368H38.316V3.368H40.164V1.368ZM37.316 2.368V5.584H39.316V2.368H37.316ZM38.316 6.584H39.744V4.584H38.316V6.584ZM39.744 6.584C40.0568 6.584 40.3706 6.5537 40.6843 6.49487L40.3157 4.52913C40.1174 4.5663 39.9272 4.584 39.744 4.584V6.584ZM40.7075 6.49023C41.06 6.41547 41.395 6.29474 41.7056 6.12216L40.7344 4.37384C40.613 4.44126 40.468 4.49653 40.2925 4.53377L40.7075 6.49023ZM41.7298 6.10829C42.0933 5.89286 42.3854 5.597 42.6028 5.23898L40.8932 4.20102C40.8386 4.291 40.7787 4.34714 40.7102 4.38771L41.7298 6.10829ZM42.6028 5.23898C42.8591 4.81681 42.952 4.33914 42.952 3.868H40.952C40.952 4.08486 40.9089 4.17519 40.8932 4.20102L42.6028 5.23898ZM42.952 3.868C42.952 3.12287 42.679 2.43271 42.054 1.95657L40.842 3.54743C40.889 3.58329 40.952 3.63713 40.952 3.868H42.952ZM42.054 1.95657C41.5068 1.53962 40.8513 1.368 40.164 1.368V3.368C40.5167 3.368 40.7172 3.45238 40.842 3.54743L42.054 1.95657ZM45.4911 10.168L45.3559 11.1588L46.1351 11.2651L46.4221 10.5329L45.4911 10.168ZM44.9631 10.036L45.3048 9.09621L45.3048 9.09621L44.9631 10.036ZM44.5191 9.76L43.5902 9.38952L43.3462 10.0013L43.812 10.4671L44.5191 9.76ZM47.8791 1.336L47.4782 0.419841L47.1023 0.584333L46.9502 0.965521L47.8791 1.336ZM48.8031 1.336L49.7308 0.962784L49.5893 0.611098L49.2503 0.441571L48.8031 1.336ZM52.1871 9.748L52.9199 10.4285L53.3516 9.96347L53.1148 9.37478L52.1871 9.748ZM51.7671 10.012L51.4253 9.07221L51.4067 9.07897L51.3884 9.08645L51.7671 10.012ZM51.1791 10.168L50.2496 10.537L50.5419 11.2733L51.3256 11.1572L51.1791 10.168ZM50.2311 7.78L51.1605 7.41103L50.91 6.78H50.2311V7.78ZM46.4271 7.78V6.78H45.7449L45.496 7.41507L46.4271 7.78ZM46.8351 6.748L45.9046 6.38171L45.3667 7.748H46.8351V6.748ZM49.8231 6.748V7.748H51.2957L50.7526 6.37915L49.8231 6.748ZM48.3231 2.968L49.2526 2.59915L48.3193 0.247426L47.3926 2.60171L48.3231 2.968ZM45.6262 9.17717C45.5244 9.16329 45.4176 9.13721 45.3048 9.09621L44.6213 10.9758C44.8606 11.0628 45.1057 11.1247 45.3559 11.1588L45.6262 9.17717ZM45.3048 9.09621C45.2518 9.07692 45.2326 9.05928 45.2262 9.05289L43.812 10.4671C44.0456 10.7007 44.3224 10.8671 44.6213 10.9758L45.3048 9.09621ZM45.4479 10.1305L48.8079 1.70648L46.9502 0.965521L43.5902 9.38952L45.4479 10.1305ZM48.2799 2.25216C48.2532 2.26382 48.2624 2.252 48.3351 2.252V0.252C48.0557 0.252 47.7609 0.296177 47.4782 0.419841L48.2799 2.25216ZM48.3351 2.252C48.3619 2.252 48.3829 2.25295 48.3984 2.25417C48.414 2.2554 48.4227 2.25678 48.4254 2.25727C48.4282 2.25777 48.4231 2.25703 48.4117 2.25348C48.4004 2.24991 48.3809 2.24294 48.3559 2.23043L49.2503 0.441571C48.9406 0.286752 48.6075 0.252 48.3351 0.252V2.252ZM47.8753 1.70921L51.2593 10.1212L53.1148 9.37478L49.7308 0.962784L47.8753 1.70921ZM51.4543 9.06755C51.4662 9.05465 51.4741 9.05 51.4719 9.05136C51.4692 9.05307 51.4553 9.06129 51.4253 9.07221L52.1088 10.9518C52.4008 10.8456 52.6863 10.68 52.9199 10.4285L51.4543 9.06755ZM51.3884 9.08645C51.297 9.12386 51.1804 9.15689 51.0325 9.1788L51.3256 11.1572C51.6098 11.1151 51.8851 11.0441 52.1457 10.9375L51.3884 9.08645ZM52.1085 9.79903L51.1605 7.41103L49.3016 8.14897L50.2496 10.537L52.1085 9.79903ZM50.2311 6.78H46.4271V8.78H50.2311V6.78ZM45.496 7.41507L44.56 9.80307L46.4221 10.5329L47.3581 8.14493L45.496 7.41507ZM46.8351 7.748H49.8231V5.748H46.8351V7.748ZM50.7526 6.37915L49.2526 2.59915L47.3936 3.33685L48.8936 7.11685L50.7526 6.37915ZM47.3926 2.60171L45.9046 6.38171L47.7656 7.11429L49.2536 3.33429L47.3926 2.60171ZM53.8641 10H52.8641V11H53.8641V10ZM53.8641 1.336L53.5841 0.375999L52.8641 0.585998V1.336H53.8641ZM54.9801 1.336H55.9801V0.615239L55.2963 0.387316L54.9801 1.336ZM54.9801 8.956H53.9801V9.956H54.9801V8.956ZM59.2161 8.956L60.0641 8.426L59.7703 7.956H59.2161V8.956ZM59.2881 9.256L58.2898 9.31472L58.2917 9.34748L58.2958 9.38003L59.2881 9.256ZM59.3001 9.664L60.2983 9.72272L60.2985 9.71947L59.3001 9.664ZM59.2161 10V11H59.8097L60.094 10.4789L59.2161 10ZM54.8641 10V1.336H52.8641V10H54.8641ZM54.1441 2.296C54.2573 2.26298 54.3467 2.252 54.4161 2.252V0.252C54.1334 0.252 53.8549 0.297016 53.5841 0.375999L54.1441 2.296ZM54.4161 2.252C54.5349 2.252 54.6138 2.26801 54.6638 2.28468L55.2963 0.387316C55.0103 0.291987 54.7132 0.252 54.4161 0.252V2.252ZM53.9801 1.336V8.956H55.9801V1.336H53.9801ZM54.9801 9.956H59.2161V7.956H54.9801V9.956ZM58.3681 9.486C58.3143 9.40004 58.2964 9.33195 58.2917 9.31237C58.2863 9.29005 58.2882 9.28789 58.2898 9.31472L60.2863 9.19728C60.2753 9.00884 60.2385 8.70507 60.0641 8.426L58.3681 9.486ZM58.2958 9.38003C58.3035 9.44202 58.3067 9.51753 58.3016 9.60853L60.2985 9.71947C60.3095 9.52247 60.3046 9.32598 60.2803 9.13197L58.2958 9.38003ZM58.3018 9.60528C58.3008 9.622 58.2995 9.62133 58.3029 9.60746C58.3065 9.59327 58.3159 9.56195 58.3382 9.52115L60.094 10.4789C60.2332 10.2236 60.2846 9.95593 60.2983 9.72272L58.3018 9.60528ZM59.2161 9H53.8641V11H59.2161V9ZM60.9891 10H59.9891V11H60.9891V10ZM60.9891 1.336L60.7091 0.375999L59.9891 0.585998V1.336H60.9891ZM62.1051 1.336H63.1051V0.615239L62.4213 0.387316L62.1051 1.336ZM62.1051 8.956H61.1051V9.956H62.1051V8.956ZM66.3411 8.956L67.1891 8.426L66.8953 7.956H66.3411V8.956ZM66.4131 9.256L65.4148 9.31472L65.4167 9.34748L65.4208 9.38003L66.4131 9.256ZM66.4251 9.664L67.4233 9.72272L67.4235 9.71947L66.4251 9.664ZM66.3411 10V11H66.9347L67.219 10.4789L66.3411 10ZM61.9891 10V1.336H59.9891V10H61.9891ZM61.2691 2.296C61.3823 2.26298 61.4717 2.252 61.5411 2.252V0.252C61.2584 0.252 60.9799 0.297016 60.7091 0.375999L61.2691 2.296ZM61.5411 2.252C61.6599 2.252 61.7388 2.26801 61.7888 2.28468L62.4213 0.387316C62.1353 0.291987 61.8382 0.252 61.5411 0.252V2.252ZM61.1051 1.336V8.956H63.1051V1.336H61.1051ZM62.1051 9.956H66.3411V7.956H62.1051V9.956ZM65.4931 9.486C65.4393 9.40004 65.4214 9.33195 65.4167 9.31237C65.4113 9.29005 65.4132 9.28789 65.4148 9.31472L67.4113 9.19728C67.4003 9.00884 67.3635 8.70507 67.1891 8.426L65.4931 9.486ZM65.4208 9.38003C65.4285 9.44202 65.4317 9.51753 65.4266 9.60853L67.4235 9.71947C67.4345 9.52247 67.4296 9.32598 67.4053 9.13197L65.4208 9.38003ZM65.4268 9.60528C65.4258 9.622 65.4245 9.62133 65.4279 9.60746C65.4315 9.59327 65.4409 9.56195 65.4632 9.52115L67.219 10.4789C67.3582 10.2236 67.4096 9.95593 67.4233 9.72272L65.4268 9.60528ZM66.3411 9H60.9891V11H66.3411V9ZM68.3661 10.168L68.2309 11.1588L69.0101 11.2651L69.2971 10.5329L68.3661 10.168ZM67.8381 10.036L68.1798 9.09621L68.1798 9.09621L67.8381 10.036ZM67.3941 9.76L66.4652 9.38952L66.2212 10.0013L66.687 10.4671L67.3941 9.76ZM70.7541 1.336L70.3532 0.419841L69.9773 0.584333L69.8252 0.965521L70.7541 1.336ZM71.6781 1.336L72.6058 0.962784L72.4643 0.611098L72.1253 0.441571L71.6781 1.336ZM75.0621 9.748L75.7949 10.4285L76.2266 9.96347L75.9898 9.37478L75.0621 9.748ZM74.6421 10.012L74.3003 9.07221L74.2817 9.07897L74.2634 9.08645L74.6421 10.012ZM74.0541 10.168L73.1246 10.537L73.4169 11.2733L74.2006 11.1572L74.0541 10.168ZM73.1061 7.78L74.0355 7.41103L73.785 6.78H73.1061V7.78ZM69.3021 7.78V6.78H68.6199L68.371 7.41507L69.3021 7.78ZM69.7101 6.748L68.7796 6.38171L68.2417 7.748H69.7101V6.748ZM72.6981 6.748V7.748H74.1707L73.6276 6.37915L72.6981 6.748ZM71.1981 2.968L72.1276 2.59915L71.1943 0.247426L70.2676 2.60171L71.1981 2.968ZM68.5012 9.17717C68.3994 9.16329 68.2926 9.13721 68.1798 9.09621L67.4963 10.9758C67.7356 11.0628 67.9807 11.1247 68.2309 11.1588L68.5012 9.17717ZM68.1798 9.09621C68.1268 9.07692 68.1076 9.05928 68.1012 9.05289L66.687 10.4671C66.9206 10.7007 67.1974 10.8671 67.4963 10.9758L68.1798 9.09621ZM68.3229 10.1305L71.6829 1.70648L69.8252 0.965521L66.4652 9.38952L68.3229 10.1305ZM71.1549 2.25216C71.1282 2.26382 71.1374 2.252 71.2101 2.252V0.252C70.9307 0.252 70.6359 0.296177 70.3532 0.419841L71.1549 2.25216ZM71.2101 2.252C71.2369 2.252 71.2579 2.25295 71.2734 2.25417C71.289 2.2554 71.2977 2.25678 71.3004 2.25727C71.3032 2.25777 71.2981 2.25703 71.2867 2.25348C71.2754 2.24991 71.2559 2.24294 71.2309 2.23043L72.1253 0.441571C71.8156 0.286752 71.4825 0.252 71.2101 0.252V2.252ZM70.7503 1.70921L74.1343 10.1212L75.9898 9.37478L72.6058 0.962784L70.7503 1.70921ZM74.3293 9.06755C74.3412 9.05465 74.3491 9.05 74.3469 9.05136C74.3442 9.05307 74.3303 9.06129 74.3003 9.07221L74.9838 10.9518C75.2758 10.8456 75.5613 10.68 75.7949 10.4285L74.3293 9.06755ZM74.2634 9.08645C74.172 9.12386 74.0554 9.15689 73.9075 9.1788L74.2006 11.1572C74.4848 11.1151 74.7601 11.0441 75.0207 10.9375L74.2634 9.08645ZM74.9835 9.79903L74.0355 7.41103L72.1766 8.14897L73.1246 10.537L74.9835 9.79903ZM73.1061 6.78H69.3021V8.78H73.1061V6.78ZM68.371 7.41507L67.435 9.80307L69.2971 10.5329L70.2331 8.14493L68.371 7.41507ZM69.7101 7.748H72.6981V5.748H69.7101V7.748ZM73.6276 6.37915L72.1276 2.59915L70.2686 3.33685L71.7686 7.11685L73.6276 6.37915ZM70.2676 2.60171L68.7796 6.38171L70.6406 7.11429L72.1286 3.33429L70.2676 2.60171ZM76.9431 10.168L76.86 11.1645L77.4274 11.2118L77.7577 10.748L76.9431 10.168ZM76.3911 9.952L75.7619 10.7292L75.782 10.7455L75.8029 10.7607L76.3911 9.952ZM76.0791 9.496L75.2648 8.91546L75.001 9.28551L75.1063 9.72762L76.0791 9.496ZM78.9111 5.524L79.7253 6.10454L80.1403 5.52253L79.7239 4.94151L78.9111 5.524ZM76.2711 1.84L75.381 1.38412L75.103 1.92685L75.4582 2.42249L76.2711 1.84ZM77.1591 1.216L77.9701 0.631025L77.5908 0.105087L76.9558 0.236866L77.1591 1.216ZM79.6431 4.66L78.832 5.24497L79.651 6.38048L80.4595 5.23746L79.6431 4.66ZM82.0791 1.216L82.2549 0.231572L81.6295 0.119899L81.2626 0.638535L82.0791 1.216ZM82.6311 1.444L82.0171 2.23335L82.0312 2.24427L82.0456 2.25468L82.6311 1.444ZM82.9671 1.84L83.7848 2.41556L84.1286 1.92707L83.8615 1.39279L82.9671 1.84ZM80.3151 5.608L79.4973 5.03244L79.0877 5.61439L79.5033 6.19204L80.3151 5.608ZM83.1471 9.544L84.0834 9.89512L84.2712 9.39421L83.9588 8.95996L83.1471 9.544ZM82.7871 9.988L82.2607 9.13774L82.2513 9.14354L82.2421 9.14956L82.7871 9.988ZM82.2471 10.168L81.4349 10.7515L81.7642 11.2098L82.3268 11.1648L82.2471 10.168ZM79.5831 6.46L80.3952 5.87653L79.5794 4.741L78.7684 5.88001L79.5831 6.46ZM77.0261 9.17145C77.029 9.1717 77.0297 9.1724 77.0255 9.17076C77.0206 9.16884 77.0051 9.16207 76.9792 9.14326L75.8029 10.7607C76.1073 10.9821 76.4629 11.1314 76.86 11.1645L77.0261 9.17145ZM77.0203 9.17476C76.9989 9.15744 77.0011 9.15487 77.0124 9.17132C77.0249 9.1896 77.0417 9.22153 77.0519 9.26438L75.1063 9.72762C75.2091 10.1596 75.4662 10.4899 75.7619 10.7292L77.0203 9.17476ZM76.8933 10.0765L79.7253 6.10454L78.0968 4.94346L75.2648 8.91546L76.8933 10.0765ZM79.7239 4.94151L77.0839 1.25751L75.4582 2.42249L78.0982 6.10649L79.7239 4.94151ZM77.1611 2.29588C77.1725 2.27364 77.1815 2.26501 77.194 2.25619C77.2106 2.2445 77.258 2.21677 77.3623 2.19513L76.9558 0.236866C76.2935 0.374339 75.7119 0.738153 75.381 1.38412L77.1611 2.29588ZM76.348 1.80097L78.832 5.24497L80.4541 4.07503L77.9701 0.631025L76.348 1.80097ZM80.4595 5.23746L82.8955 1.79346L81.2626 0.638535L78.8266 4.08254L80.4595 5.23746ZM81.9033 2.20043C82.0063 2.21883 82.029 2.24261 82.0171 2.23335L83.245 0.654647C82.9451 0.421391 82.5998 0.29317 82.2549 0.231572L81.9033 2.20043ZM82.0456 2.25468C82.0578 2.26352 82.0643 2.27045 82.0726 2.28721L83.8615 1.39279C83.7099 1.08955 83.4923 0.832475 83.2166 0.63332L82.0456 2.25468ZM82.1493 1.26444L79.4973 5.03244L81.1328 6.18356L83.7848 2.41556L82.1493 1.26444ZM79.5033 6.19204L82.3353 10.128L83.9588 8.95996L81.1268 5.02396L79.5033 6.19204ZM82.2107 9.19288C82.2097 9.19568 82.2135 9.18504 82.2263 9.1692C82.2394 9.15301 82.253 9.14248 82.2607 9.13774L83.3134 10.8383C83.677 10.6132 83.9369 10.2858 84.0834 9.89512L82.2107 9.19288ZM82.2421 9.14956C82.2288 9.15818 82.2103 9.16775 82.1673 9.17118L82.3268 11.1648C82.6838 11.1363 83.0253 11.0258 83.3321 10.8264L82.2421 9.14956ZM83.0592 9.58453L80.3952 5.87653L78.7709 7.04347L81.4349 10.7515L83.0592 9.58453ZM78.7684 5.88001L76.1284 9.58801L77.7577 10.748L80.3977 7.03999L78.7684 5.88001ZM93.2324 8.524L92.688 9.36284L93.143 9.65807L93.6385 9.43781L93.2324 8.524ZM89.1644 5.884L88.1923 6.11864L88.2858 6.50594L88.62 6.72284L89.1644 5.884ZM89.1644 5.164L88.6254 4.32168L88.2794 4.54307L88.189 4.94374L89.1644 5.164ZM93.1964 2.584L93.5903 1.66485L93.1035 1.45623L92.6574 1.74168L93.1964 2.584ZM93.5924 2.908L92.7604 3.4627L92.7678 3.47379L92.7754 3.48468L93.5924 2.908ZM93.7364 3.424L94.2733 4.26766L94.7364 3.97295V3.424H93.7364ZM90.4364 5.524L89.8995 4.68034L88.5887 5.5145L89.8909 6.36209L90.4364 5.524ZM93.7364 7.672H94.7364V7.12973L94.2819 6.8339L93.7364 7.672ZM93.5924 8.224L94.4094 8.80068L94.4171 8.78979L94.4245 8.7787L93.5924 8.224ZM93.7768 7.68516L89.7088 5.04516L88.62 6.72284L92.688 9.36284L93.7768 7.68516ZM90.1365 5.64936C90.1189 5.57639 90.1154 5.4924 90.1398 5.38426L88.189 4.94374C88.1014 5.3316 88.0979 5.72761 88.1923 6.11864L90.1365 5.64936ZM89.7034 6.00632L93.7354 3.42632L92.6574 1.74168L88.6254 4.32168L89.7034 6.00632ZM92.8025 3.50314C92.8065 3.50485 92.7997 3.50243 92.7882 3.49296C92.7763 3.48321 92.7666 3.47201 92.7604 3.4627L94.4245 2.3533C94.2147 2.03863 93.9261 1.80876 93.5903 1.66485L92.8025 3.50314ZM92.7754 3.48468C92.7528 3.45259 92.7417 3.42399 92.7372 3.4078C92.7332 3.39329 92.7364 3.3963 92.7364 3.424H94.7364C94.7364 3.06142 94.6513 2.67401 94.4094 2.33132L92.7754 3.48468ZM93.1995 2.58034L89.8995 4.68034L90.9733 6.36766L94.2733 4.26766L93.1995 2.58034ZM89.8909 6.36209L93.1909 8.5101L94.2819 6.8339L90.9819 4.6859L89.8909 6.36209ZM92.7364 7.672C92.7364 7.71349 92.7319 7.72907 92.7328 7.72558C92.7333 7.72355 92.7353 7.71678 92.7398 7.70651C92.7443 7.69613 92.751 7.68333 92.7604 7.6693L94.4245 8.7787C94.658 8.42833 94.7364 8.03589 94.7364 7.672H92.7364ZM92.7754 7.64732C92.7745 7.6487 92.7789 7.64218 92.7902 7.63278C92.8018 7.62315 92.8147 7.61535 92.8263 7.61019L93.6385 9.43781C93.9568 9.29636 94.2155 9.0754 94.4094 8.80068L92.7754 7.64732ZM97.0388 10.12V11.12H97.7102L97.9643 10.4985L97.0388 10.12ZM96.4868 10.024L96.8748 9.10236L96.4868 10.024ZM96.0788 9.76L95.154 9.37945L94.8908 10.0191L95.3964 10.4911L96.0788 9.76ZM99.5948 1.216L99.4952 0.220962L98.8983 0.280656L98.67 0.835446L99.5948 1.216ZM100.123 1.3L99.7716 2.23641L99.784 2.24089L100.123 1.3ZM100.543 1.552L101.468 1.93053L101.696 1.37385L101.311 0.911814L100.543 1.552ZM97.0388 9.12C96.9167 9.12 96.8723 9.10131 96.8748 9.10236L96.0987 10.9456C96.4052 11.0747 96.7288 11.12 97.0388 11.12V9.12ZM96.8748 9.10236C96.8308 9.08385 96.7946 9.0602 96.7611 9.02894L95.3964 10.4911C95.6029 10.6838 95.8387 10.8362 96.0987 10.9456L96.8748 9.10236ZM97.0035 10.1406L100.52 1.59655L98.67 0.835446L95.154 9.37945L97.0035 10.1406ZM99.6943 2.21104C99.6654 2.21392 99.685 2.20384 99.7716 2.23633L100.474 0.363671C100.177 0.252162 99.8441 0.186079 99.4952 0.220962L99.6943 2.21104ZM99.784 2.24089C99.811 2.25059 99.8308 2.25887 99.8445 2.26515C99.8583 2.27147 99.8639 2.27489 99.8633 2.27449C99.8627 2.27415 99.8533 2.26851 99.8383 2.25621C99.8232 2.24387 99.8003 2.22307 99.7745 2.19218L101.311 0.911814C101.063 0.614191 100.726 0.454184 100.461 0.359112L99.784 2.24089ZM99.6172 1.17347L96.1132 9.74147L97.9643 10.4985L101.468 1.93053L99.6172 1.17347ZM103.382 8.524L102.976 9.43781L103.472 9.65807L103.927 9.36284L103.382 8.524ZM103.022 8.224L102.19 8.7787L102.198 8.78979L102.205 8.80068L103.022 8.224ZM102.878 7.672L102.333 6.8339L101.878 7.12973V7.672H102.878ZM106.178 5.524L106.724 6.36209L108.026 5.5145L106.715 4.68034L106.178 5.524ZM102.878 3.424H101.878V3.97295L102.342 4.26766L102.878 3.424ZM103.022 2.908L103.839 3.48468L103.847 3.47379L103.854 3.4627L103.022 2.908ZM103.418 2.584L103.957 1.74168L103.511 1.45623L103.025 1.66485L103.418 2.584ZM107.45 5.164L108.426 4.94374L108.335 4.54307L107.989 4.32168L107.45 5.164ZM107.45 5.884L107.995 6.72284L108.329 6.50594L108.423 6.11864L107.45 5.884ZM103.789 7.61019C103.8 7.61535 103.813 7.62315 103.825 7.63278C103.836 7.64218 103.84 7.6487 103.839 7.64732L102.205 8.80068C102.399 9.0754 102.658 9.29636 102.976 9.43781L103.789 7.61019ZM103.854 7.6693C103.864 7.68333 103.871 7.69613 103.875 7.70651C103.88 7.71678 103.882 7.72355 103.882 7.72558C103.883 7.72907 103.878 7.71349 103.878 7.672H101.878C101.878 8.03589 101.957 8.42833 102.19 8.7787L103.854 7.6693ZM103.424 8.5101L106.724 6.36209L105.633 4.6859L102.333 6.8339L103.424 8.5101ZM106.715 4.68034L103.415 2.58034L102.342 4.26766L105.642 6.36766L106.715 4.68034ZM103.878 3.424C103.878 3.3963 103.882 3.39329 103.878 3.4078C103.873 3.42399 103.862 3.45259 103.839 3.48468L102.205 2.33132C101.964 2.67401 101.878 3.06142 101.878 3.424H103.878ZM103.854 3.4627C103.848 3.47201 103.839 3.48321 103.827 3.49296C103.815 3.50243 103.808 3.50485 103.812 3.50314L103.025 1.66485C102.689 1.80876 102.4 2.03863 102.19 2.3533L103.854 3.4627ZM102.879 3.42632L106.911 6.00632L107.989 4.32168L103.957 1.74168L102.879 3.42632ZM106.475 5.38426C106.499 5.4924 106.496 5.57639 106.478 5.64936L108.423 6.11864C108.517 5.72761 108.513 5.3316 108.426 4.94374L106.475 5.38426ZM106.906 5.04516L102.838 7.68516L103.927 9.36284L107.995 6.72284L106.906 5.04516Z" fill="#343A40" mask="url(#path-1-outside-1_1_5)"/>
</svg>
