<svg width="800" height="800" viewBox="0 0 800 800" fill="none" xmlns="http://www.w3.org/2000/svg">
<path d="M758.871 580.494C774.303 580.494 786.818 567.979 786.818 552.547C786.818 537.115 774.303 524.6 758.871 524.6H581.885V273.08H758.871C774.303 273.08 786.818 260.565 786.818 245.133C786.818 229.702 774.303 217.186 758.871 217.186H581.885V40.2004C581.885 24.7653 569.37 12.2537 553.939 12.2537C538.503 12.2537 525.992 24.7653 525.992 40.2004V217.186H274.473V40.1881C274.473 24.7565 261.958 12.2414 246.526 12.2414C231.091 12.2414 218.58 24.7565 218.58 40.1881V217.188H41.5797C26.1481 217.188 13.6329 229.703 13.6329 245.135C13.6329 260.566 26.1481 273.082 41.5797 273.082H218.58V524.6H41.5797C26.1481 524.6 13.6329 537.115 13.6329 552.547C13.6329 567.979 26.1481 580.494 41.5797 580.494H218.58V757.48C218.58 772.915 231.091 785.426 246.526 785.426C261.958 785.426 274.473 772.915 274.473 757.48V580.494H525.992V757.494C525.992 772.925 538.503 785.44 553.939 785.44C569.37 785.44 581.885 772.925 581.885 757.494V580.494H758.871ZM274.473 524.6V273.08H525.992V524.599H274.473V524.6Z" fill="#2E1648"/>
<path d="M96.3413 139.052L92.8054 135.515L89.2694 139.052L44.9878 183.344C40.5045 187.827 34.6437 190.067 28.7674 190.066H28.7662C22.8871 190.066 17.026 187.825 12.5428 183.342L12.54 183.339C3.57955 174.393 3.57587 159.863 12.5426 150.897L12.5435 150.897L56.822 106.602L60.3556 103.067L56.8221 99.5325L12.5435 55.2365L12.5423 55.2352C3.57628 46.2721 3.57914 31.7415 12.5403 22.7934L12.5431 22.7905C21.5049 13.8273 36.0233 13.8267 44.9874 22.7904C44.9875 22.7905 44.9877 22.7907 44.9878 22.7908L89.2694 67.0829L92.8054 70.6197L96.3413 67.0829L140.623 22.7905C140.623 22.7905 140.623 22.7904 140.623 22.7904C149.585 13.8271 164.104 13.8268 173.068 22.7908L173.07 22.7934C182.031 31.7414 182.035 46.2704 173.068 55.2355L173.067 55.2365L128.789 99.5325L125.255 103.067L128.789 106.602L173.069 150.898L173.07 150.9C182.036 159.863 182.033 174.393 173.072 183.341L173.07 183.343C168.585 187.827 162.723 190.067 156.846 190.067C150.967 190.067 145.106 187.827 140.623 183.344L96.3413 139.052Z" fill="#C7003D" stroke="#2C2C2C" stroke-width="10"/>
<path d="M436.206 395.305L432.672 398.84L436.206 402.375L480.49 446.671L480.491 446.672C489.456 455.635 489.453 470.166 480.493 479.114L480.492 479.116C476.004 483.6 470.144 485.84 464.266 485.84C458.39 485.84 452.525 483.6 448.042 479.117L403.761 434.825L400.225 431.288L396.689 434.825L352.408 479.116C347.922 483.6 342.061 485.84 336.184 485.84C330.308 485.84 324.443 483.6 319.96 479.117L319.958 479.114C310.999 470.168 310.995 455.637 319.96 446.672L319.961 446.671L364.243 402.375L367.777 398.84L364.243 395.305L319.961 351.009L319.96 351.008C310.995 342.045 310.998 327.514 319.958 318.566L319.961 318.563C328.923 309.598 343.441 309.598 352.405 318.563C352.405 318.563 352.405 318.563 352.405 318.563L396.687 362.856L400.223 366.392L403.759 362.856L448.041 318.563C448.041 318.563 448.041 318.563 448.041 318.563C457.005 309.598 471.523 309.598 480.489 318.564L480.491 318.566C489.451 327.512 489.454 342.043 480.489 351.008L480.488 351.009L436.206 395.305Z" fill="#C7003D" stroke="#2C2C2C" stroke-width="10"/>
<path d="M498.285 103.067C498.285 157.142 454.292 201.135 400.218 201.135C346.145 201.135 302.15 157.14 302.15 103.067C302.15 48.993 346.143 5 400.218 5C454.292 5 498.285 48.993 498.285 103.067ZM452.392 103.067C452.392 74.2965 428.988 50.8934 400.218 50.8934C371.447 50.8934 348.044 74.2965 348.044 103.067C348.044 131.838 371.447 155.241 400.218 155.241C428.988 155.241 452.392 131.838 452.392 103.067Z" fill="#007BFF" stroke="#2C2C2C" stroke-width="10"/>
<path d="M598.048 696.933C598.048 642.858 642.041 598.865 696.115 598.865C750.188 598.865 794.182 642.858 794.182 696.933C794.182 751.007 750.188 795 696.115 795C642.041 795 598.048 751.007 598.048 696.933ZM643.941 696.933C643.941 725.703 667.344 749.107 696.115 749.107C724.886 749.107 748.289 725.703 748.289 696.933C748.289 668.162 724.886 644.759 696.115 644.759C667.344 644.759 643.941 668.162 643.941 696.933Z" fill="#007BFF" stroke="#2C2C2C" stroke-width="10"/>
</svg>
